PathFileType  4	(X/Y/Z) C:\Users\antoi\Documents\MyRepositories\mobilecap\ResultsAnalysis
DataRate	CameraRate	NumFrames	NumMarkers	Units	OrigDataRate	OrigDataStartFrame	OrigNumFrames
100.0	100.0	4	51	mm	100.0	67	133
Frame#	Time	r_knee			r_shank_antsup			r_ankle			r_calc			r_5meta			r_toe			L_knee			L_shank_antsup			L_ankle			L_calc			L_5meta			L_toe			r_sh2			r_sh3			r_sh4			L_sh2			L_sh3			r_thigh1			r_thigh2			r_thigh3			r_thigh4			r_thigh5			L_thigh1			L_thigh2			L_thigh3			L_thigh4			r.ASIS			r.PSIS			L.ASIS			L.PSIS			C7			R_Shoulder			L_Shoulder			R_Sternum			L_Sternum			R_humerus			R_elbow_med			R_elbow_lat			R_forearm			R_wrist_radius			R_wrist_ulna			L_humerus			L_elbow_med			L_elbow_lat			L_forearm			L_wrist_radius			L_wrist_ulna			R_HJC			L_HJC			R_HJC_reg			L_HJC_reg			
		X1	Y1	Z1	X2	Y2	Z2	X3	Y3	Z3	X4	Y4	Z4	X5	Y5	Z5	X6	Y6	Z6	X7	Y7	Z7	X8	Y8	Z8	X9	Y9	Z9	X10	Y10	Z10	X11	Y11	Z11	X12	Y12	Z12	X13	Y13	Z13	X14	Y14	Z14	X15	Y15	Z15	X16	Y16	Z16	X17	Y17	Z17	X18	Y18	Z18	X19	Y19	Z19	X20	Y20	Z20	X21	Y21	Z21	X22	Y22	Z22	X23	Y23	Z23	X24	Y24	Z24	X25	Y25	Z25	X26	Y26	Z26	X27	Y27	Z27	X28	Y28	Z28	X29	Y29	Z29	X30	Y30	Z30	X31	Y31	Z31	X32	Y32	Z32	X33	Y33	Z33	X34	Y34	Z34	X35	Y35	Z35	X36	Y36	Z36	X37	Y37	Z37	X38	Y38	Z38	X39	Y39	Z39	X40	Y40	Z40	X41	Y41	Z41	X42	Y42	Z42	X43	Y43	Z43	X44	Y44	Z44	X45	Y45	Z45	X46	Y46	Z46	X47	Y47	Z47	X48	Y48	Z48	X49	Y49	Z49	X50	Y50	Z50	X51	Y51	Z51	

67	0.66000000	507.56807	459.19795	-31.68290	514.55465	392.43757	-39.42824	234.56091	154.86896	-98.05763	169.07347	157.61531	-148.69957	314.91062	32.85438	-76.23829	361.82766	48.01979	-129.32128	774.92368	483.32248	-304.12571	822.49171	405.81613	-307.36916	816.22696	90.02593	-246.99537	759.77141	57.38004	-190.53924	940.47649	42.20278	-268.85136	984.13808	67.84996	-217.30096	442.85207	305.74620	-60.77409	454.13889	433.87861	-11.53333	378.55364	346.31766	-18.06054	735.16481	397.67540	-327.41949	754.27179	278.11494	-312.77503	671.17874	733.14126	-71.60256	661.24188	624.03348	-66.78117	629.70892	604.33948	-10.00888	594.34939	739.66934	10.59997	581.11527	626.93713	9.33773	698.90020	797.61422	-343.03790	750.85656	665.46806	-340.44166	593.13914	756.30532	-347.44420	641.43241	629.76441	-327.39211	667.76829	920.81928	-37.24654	486.55133	955.32121	-133.11154	698.56537	916.09361	-274.72024	492.88910	953.59699	-231.08399	554.52566	1431.35004	-193.34031	606.03070	1406.36156	-36.62277	607.53507	1368.56739	-352.38693	660.32070	1328.61985	-171.80922	663.15430	1322.34990	-210.21658	658.85758	1195.88625	74.71937	624.31166	1083.12012	69.44251	664.75850	1109.95087	116.52860	803.76963	1073.83066	87.57572	893.83974	1053.46200	40.32069	889.72480	1022.15928	72.70190	522.26988	1145.75534	-419.76906	463.08124	1058.34091	-358.96130	465.09859	1064.20757	-418.82123	466.66994	926.34534	-462.71262	469.20381	816.26589	-463.28746	426.11976	825.42998	-467.14375	599.00233	839.13078	-81.06623	608.56384	845.76628	-271.35575	605.50679	849.62015	-73.27170	615.71289	846.81927	-230.97394	
68	0.67000000	530.46055	457.01430	-30.23157	536.21200	389.96731	-37.62204	246.55902	164.53278	-94.57055	182.11197	172.93729	-145.10873	316.84735	34.40514	-75.83782	364.79517	47.92863	-128.33577	789.36781	485.00198	-303.80500	834.96245	405.90853	-306.52607	818.20070	90.14181	-246.77843	760.34157	57.79929	-190.62894	941.11029	41.38689	-268.89558	985.17243	65.40871	-216.72789	460.80835	305.85929	-58.73515	477.41473	433.80245	-9.89323	398.62503	349.15037	-15.97398	748.16797	400.04753	-328.92303	763.77168	280.07591	-314.31419	687.38652	733.35375	-72.77159	680.30945	623.83104	-66.96207	649.48192	604.13515	-9.64914	611.00332	738.82071	9.71770	600.36863	625.84303	9.50354	713.69637	800.41319	-342.27587	766.37905	668.43916	-339.54947	608.45911	758.78407	-349.87722	657.06668	631.78900	-330.66122	682.25524	920.14367	-38.73459	500.44297	955.41127	-133.12054	712.49393	917.76033	-275.61158	506.66549	955.00209	-231.22331	567.77226	1431.98033	-194.58766	619.34912	1407.02597	-37.41224	621.40926	1368.88276	-353.49515	673.82741	1329.37298	-172.75164	676.71168	1323.00216	-211.15676	668.34371	1194.91119	73.78621	632.12558	1082.79369	67.65759	672.50752	1108.73422	115.13458	810.90453	1069.05495	87.26581	900.74769	1046.11473	40.72165	895.65410	1015.07545	73.21196	539.24313	1144.82112	-420.53062	480.28264	1057.05128	-359.79699	482.86414	1062.65520	-419.67124	486.08890	924.60563	-462.80200	489.69609	814.55973	-462.78480	446.54919	823.33419	-467.09381	613.31414	838.84130	-82.76565	622.30088	847.47657	-272.99597	620.02021	849.00171	-75.49997	629.99960	848.32251	-232.79522	
69	0.68000000	554.69301	454.93892	-28.66403	559.32070	387.68645	-36.09565	260.64486	174.78053	-91.10659	197.68043	189.28206	-141.35386	319.50040	37.24143	-75.34488	368.45991	48.45209	-127.20654	802.67060	486.44405	-303.54911	846.30304	405.86126	-305.75774	819.56220	90.32047	-246.57338	760.62945	57.93999	-190.69596	941.35882	41.21870	-269.00174	985.67986	63.98837	-216.30804	480.31798	306.24510	-56.97096	502.38814	433.56565	-7.93347	420.63485	351.83906	-13.60380	760.00787	402.25989	-330.17543	772.12903	281.93626	-315.59855	703.55094	734.00625	-74.05107	699.74780	624.13469	-67.29624	669.83191	604.33376	-9.37197	627.80263	738.15510	8.87640	620.24314	625.01737	9.69145	727.95442	803.03979	-341.78269	781.01651	671.15211	-339.04946	623.14377	761.31436	-352.16663	671.89475	633.80504	-333.80860	696.46078	919.68780	-40.27052	513.98073	955.82123	-133.12868	726.08510	919.69307	-276.64747	520.17321	956.60777	-231.34609	580.98901	1432.89457	-195.75234	632.59317	1408.01078	-38.18488	635.19867	1369.56438	-354.48409	687.20433	1330.41048	-173.58372	690.16391	1323.96454	-211.98484	677.60645	1194.26554	72.77580	639.65004	1082.94243	65.63472	679.96321	1107.83696	113.57604	817.56463	1064.08341	86.99911	907.03631	1038.13677	41.29381	900.80538	1007.46848	73.92764	556.54602	1144.17967	-421.26272	497.88577	1055.93051	-360.71565	501.05069	1061.33348	-420.59102	506.30700	923.09392	-462.87947	511.17529	813.09840	-462.13513	467.94719	821.42469	-467.08147	627.33112	838.80251	-84.52600	635.68243	849.44947	-274.68605	634.07287	848.78505	-77.78929	643.96631	850.02699	-234.71521	
70	0.69000000	580.08831	453.14684	-27.07629	583.68688	385.73189	-34.96709	276.78361	185.48891	-87.80441	215.81319	206.23065	-137.65010	323.17029	41.61114	-74.70087	373.04540	49.79263	-125.90467	814.46680	487.43986	-303.42165	856.31796	405.56440	-305.17665	820.47749	90.49966	-246.37610	760.75379	57.92464	-190.73980	941.39770	41.36360	-269.09840	985.88738	63.24866	-215.98818	501.30944	307.00114	-55.55757	528.82826	433.26634	-5.73886	444.34352	354.43729	-11.08047	770.40103	404.09223	-331.04166	779.25854	283.49957	-316.48282	719.60712	735.12558	-75.36397	719.38331	625.00510	-67.74517	690.55549	605.00628	-9.18398	644.62648	737.74029	8.10569	640.58202	624.58707	9.89346	741.59593	805.19702	-341.69113	794.43690	673.22071	-339.07179	636.99242	763.77686	-354.16234	685.47279	635.72076	-336.48773	710.28562	919.52657	-41.70781	527.14995	956.54287	-133.23815	739.37568	921.73913	-277.72710	533.43910	958.34856	-231.53040	594.15511	1434.05353	-196.82864	645.71599	1409.27317	-38.93676	648.88677	1370.59705	-355.33917	700.43270	1331.69976	-174.29934	703.49503	1325.20823	-212.69186	686.68831	1193.94547	71.70009	646.93703	1083.55389	63.41155	687.17644	1107.25681	111.87843	823.75668	1058.94269	86.79039	912.67677	1029.57924	42.04333	905.14942	999.39620	74.84415	574.07579	1143.85936	-421.95340	515.89951	1054.95737	-361.68408	519.56637	1060.27800	-421.55124	527.26637	921.85240	-462.93265	533.62331	811.94361	-461.34732	490.28282	819.73763	-467.09089	640.96316	839.05455	-86.22874	648.76166	851.54718	-276.31108	647.60507	848.94931	-79.98769	657.62497	851.82281	-236.61953	
